<svg width="40" height="40" viewBox="0 0 40 40" fill="none" xmlns="http://www.w3.org/2000/svg">
<path d="M4.99902 3.87682C4.37858 3.87682 3.8756 4.3798 3.8756 5.00024C3.8756 5.62069 4.37858 6.12366 4.99902 6.12366L4.99902 3.87682ZM9.16569 5.00024L10.2556 4.72777C10.1305 4.22767 9.68119 3.87682 9.16569 3.87682L9.16569 5.00024ZM31.6657 27.7903C32.2861 27.7903 32.7891 27.2874 32.7891 26.6669C32.7891 26.0465 32.2861 25.5435 31.6657 25.5435V27.7903ZM34.999 8.33358L36.0889 8.60605C36.1728 8.27044 36.0974 7.91488 35.8845 7.64221C35.6716 7.36954 35.345 7.21016 34.999 7.21016V8.33358ZM31.6657 21.6669V22.7903C32.1812 22.7903 32.6305 22.4395 32.7556 21.9394L31.6657 21.6669ZM4.99902 6.12366L9.16569 6.12366L9.16569 3.87682L4.99902 3.87682L4.99902 6.12366ZM8.07581 5.27271L8.90915 8.60605L11.0889 8.06111L10.2556 4.72777L8.07581 5.27271ZM8.90915 8.60605L12.2425 21.9394L14.4222 21.3944L11.0889 8.06111L8.90915 8.60605ZM13.3324 20.5435H12.499V22.7903H13.3324V20.5435ZM12.499 27.7903H31.6657V25.5435H12.499V27.7903ZM8.8756 24.1669C8.8756 26.1681 10.4979 27.7903 12.499 27.7903V25.5435C11.7388 25.5435 11.1224 24.9272 11.1224 24.1669H8.8756ZM12.499 20.5435C10.4979 20.5435 8.8756 22.1658 8.8756 24.1669H11.1224C11.1224 23.4066 11.7388 22.7903 12.499 22.7903V20.5435ZM9.99902 9.457H34.999V7.21016H9.99902V9.457ZM33.9091 8.06111L30.5758 21.3944L32.7556 21.9394L36.0889 8.60605L33.9091 8.06111ZM31.6657 20.5435H13.3324V22.7903H31.6657V20.5435ZM30.5423 33.3336C30.5423 33.6336 30.299 33.8768 29.999 33.8768V36.1237C31.5399 36.1237 32.7891 34.8745 32.7891 33.3336H30.5423ZM29.999 33.8768C29.699 33.8768 29.4558 33.6336 29.4558 33.3336H27.2089C27.2089 34.8745 28.4581 36.1237 29.999 36.1237V33.8768ZM29.4558 33.3336C29.4558 33.0335 29.699 32.7903 29.999 32.7903V30.5435C28.4581 30.5435 27.2089 31.7927 27.2089 33.3336H29.4558ZM29.999 32.7903C30.299 32.7903 30.5423 33.0335 30.5423 33.3336H32.7891C32.7891 31.7927 31.5399 30.5435 29.999 30.5435V32.7903ZM13.8756 33.3336C13.8756 33.6336 13.6324 33.8768 13.3324 33.8768V36.1237C14.8733 36.1237 16.1224 34.8745 16.1224 33.3336H13.8756ZM13.3324 33.8768C13.0323 33.8768 12.7891 33.6336 12.7891 33.3336H10.5423C10.5423 34.8745 11.7914 36.1237 13.3324 36.1237V33.8768ZM12.7891 33.3336C12.7891 33.0335 13.0323 32.7903 13.3324 32.7903V30.5435C11.7914 30.5435 10.5423 31.7927 10.5423 33.3336H12.7891ZM13.3324 32.7903C13.6324 32.7903 13.8756 33.0335 13.8756 33.3336H16.1224C16.1224 31.7927 14.8733 30.5435 13.3324 30.5435V32.7903Z" fill="#F2EDDA"/>
</svg>
