<svg width="43" height="43" viewBox="0 0 43 43" fill="none" xmlns="http://www.w3.org/2000/svg">
<path d="M14.1139 7.0569H37.0483V10.5853H14.1139V7.0569ZM7.93925 11.4674C6.47774 11.4674 5.29297 10.2826 5.29297 8.82108C5.29297 7.35958 6.47774 6.1748 7.93925 6.1748C9.40075 6.1748 10.5855 7.35958 10.5855 8.82108C10.5855 10.2826 9.40075 11.4674 7.93925 11.4674ZM7.93925 23.8167C6.47774 23.8167 5.29297 22.6318 5.29297 21.1704C5.29297 19.7089 6.47774 18.5241 7.93925 18.5241C9.40075 18.5241 10.5855 19.7089 10.5855 21.1704C10.5855 22.6318 9.40075 23.8167 7.93925 23.8167ZM7.93925 35.9895C6.47774 35.9895 5.29297 34.8047 5.29297 33.3433C5.29297 31.8818 6.47774 30.697 7.93925 30.697C9.40075 30.697 10.5855 31.8818 10.5855 33.3433C10.5855 34.8047 9.40075 35.9895 7.93925 35.9895ZM14.1139 19.4062H37.0483V22.9346H14.1139V19.4062ZM14.1139 31.7555H37.0483V35.2839H14.1139V31.7555Z" fill="#F2EDDA"/>
</svg>
