<svg width="27" height="29" viewBox="0 0 27 29" fill="none" xmlns="http://www.w3.org/2000/svg">
<path d="M14.9507 17.8049V20.5855C14.0741 20.2912 13.131 20.1311 12.1483 20.1311C7.50503 20.1311 3.74093 23.706 3.74093 28.1158H0.938477C0.938477 22.236 5.95728 17.4696 12.1483 17.4696C13.116 17.4696 14.0551 17.586 14.9507 17.8049ZM12.1483 16.1388C7.50322 16.1388 3.74093 12.5657 3.74093 8.15412C3.74093 3.74258 7.50322 0.169434 12.1483 0.169434C16.7934 0.169434 20.5557 3.74258 20.5557 8.15412C20.5557 12.5657 16.7934 16.1388 12.1483 16.1388ZM12.1483 13.4772C15.245 13.4772 17.7532 11.0951 17.7532 8.15412C17.7532 5.21309 15.245 2.83099 12.1483 2.83099C9.05158 2.83099 6.54338 5.21309 6.54338 8.15412C6.54338 11.0951 9.05158 13.4772 12.1483 13.4772ZM21.3765 21.4619L18.8145 19.0287L20.7961 17.1467L26.7409 22.7927L20.7961 28.4387L18.8145 26.5567L21.3765 24.1235H16.352V21.4619H21.3765Z" fill="#F2EDDA"/>
</svg>
