<svg width="28" height="36" viewBox="0 0 28 36" fill="none" xmlns="http://www.w3.org/2000/svg">
<path d="M27.3337 35.6667H24.0003V32.3334C24.0003 29.5719 21.7618 27.3334 19.0003 27.3334H9.00033C6.23891 27.3334 4.00033 29.5719 4.00033 32.3334V35.6667H0.666992V32.3334C0.666992 27.7311 4.39796 24.0001 9.00033 24.0001H19.0003C23.6027 24.0001 27.3337 27.7311 27.3337 32.3334V35.6667ZM14.0003 20.6667C8.47748 20.6667 4.00033 16.1896 4.00033 10.6667C4.00033 5.1439 8.47748 0.666748 14.0003 0.666748C19.5232 0.666748 24.0003 5.1439 24.0003 10.6667C24.0003 16.1896 19.5232 20.6667 14.0003 20.6667ZM14.0003 17.3334C17.6822 17.3334 20.667 14.3486 20.667 10.6667C20.667 6.98485 17.6822 4.00008 14.0003 4.00008C10.3184 4.00008 7.33366 6.98485 7.33366 10.6667C7.33366 14.3486 10.3184 17.3334 14.0003 17.3334Z" fill="#F2EDDA"/>
</svg>
