<svg width="27" height="29" viewBox="0 0 27 29" fill="none" xmlns="http://www.w3.org/2000/svg">
<path d="M14.5187 18.1278V20.9405C13.6691 20.6428 12.7551 20.4809 11.8027 20.4809C7.30257 20.4809 3.65453 24.0971 3.65453 28.5578H0.938477C0.938477 22.6101 5.80254 17.7886 11.8027 17.7886C12.7405 17.7886 13.6507 17.9064 14.5187 18.1278ZM11.8027 16.4424C7.30082 16.4424 3.65453 12.828 3.65453 8.3655C3.65453 3.903 7.30082 0.288574 11.8027 0.288574C16.3045 0.288574 19.9508 3.903 19.9508 8.3655C19.9508 12.828 16.3045 16.4424 11.8027 16.4424ZM11.8027 13.7501C14.8039 13.7501 17.2348 11.3405 17.2348 8.3655C17.2348 5.3905 14.8039 2.98088 11.8027 2.98088C8.80144 2.98088 6.37058 5.3905 6.37058 8.3655C6.37058 11.3405 8.80144 13.7501 11.8027 13.7501ZM19.9508 21.827V17.7886H22.6669V21.827H26.7409V24.5193H22.6669V28.5578H19.9508V24.5193H15.8767V21.827H19.9508Z" fill="#F2EDDA"/>
</svg>
