<svg width="24" height="24" viewBox="0 0 24 24" fill="none" xmlns="http://www.w3.org/2000/svg">
<path d="M15.7933 14.0128C15.2083 13.4279 14.2599 13.4279 13.6749 14.0128C13.09 14.5978 13.09 15.5462 13.6749 16.1312L15.7933 14.0128ZM19.4668 21.923C20.0517 22.508 21.0002 22.508 21.5851 21.923C22.1701 21.3381 22.1701 20.3896 21.5851 19.8047L19.4668 21.923ZM9.90755 15.5047C7.00294 15.5047 4.64828 13.1501 4.64828 10.2454H1.6525C1.6525 14.8046 5.34841 18.5005 9.90755 18.5005V15.5047ZM15.1668 10.2454C15.1668 13.1501 12.8122 15.5047 9.90755 15.5047V18.5005C14.4667 18.5005 18.1626 14.8046 18.1626 10.2454H15.1668ZM9.90755 4.98617C12.8122 4.98617 15.1668 7.34083 15.1668 10.2454H18.1626C18.1626 5.6863 14.4667 1.99039 9.90755 1.99039V4.98617ZM9.90755 1.99039C5.34841 1.99039 1.6525 5.6863 1.6525 10.2454H4.64828C4.64828 7.34083 7.00294 4.98617 9.90755 4.98617V1.99039ZM13.6749 16.1312L19.4668 21.923L21.5851 19.8047L15.7933 14.0128L13.6749 16.1312Z" fill="#097D4C"/>
</svg>
